<?xml version="1.0" encoding="UTF-8" standalone="no"?>
<svg
   xmlns:dc="http://purl.org/dc/elements/1.1/"
   xmlns:cc="http://creativecommons.org/ns#"
   xmlns:rdf="http://www.w3.org/1999/02/22-rdf-syntax-ns#"
   xmlns:svg="http://www.w3.org/2000/svg"
   xmlns="http://www.w3.org/2000/svg"
   xmlns:sodipodi="http://sodipodi.sourceforge.net/DTD/sodipodi-0.dtd"
   xmlns:inkscape="http://www.inkscape.org/namespaces/inkscape"
   version="1.1"
   id="Camada_1"
   x="0px"
   y="0px"
   viewBox="0 0 1280 720"
   style="enable-background:new 0 0 1280 720;"
   xml:space="preserve"
   sodipodi:docname="logo_preta.svg"
   inkscape:version="1.0.2 (e86c870879, 2021-01-15)"><metadata
   id="metadata114"><rdf:RDF><cc:Work
       rdf:about=""><dc:format>image/svg+xml</dc:format><dc:type
         rdf:resource="http://purl.org/dc/dcmitype/StillImage" /></cc:Work></rdf:RDF></metadata><defs
   id="defs112" /><sodipodi:namedview
   pagecolor="#ffffff"
   bordercolor="#666666"
   borderopacity="1"
   objecttolerance="10"
   gridtolerance="10"
   guidetolerance="10"
   inkscape:pageopacity="0"
   inkscape:pageshadow="2"
   inkscape:window-width="1366"
   inkscape:window-height="743"
   id="namedview110"
   showgrid="false"
   inkscape:zoom="0.38680556"
   inkscape:cx="592.90344"
   inkscape:cy="403.48602"
   inkscape:window-x="0"
   inkscape:window-y="25"
   inkscape:window-maximized="1"
   inkscape:current-layer="Camada_1" />
<g
   id="g107"
   transform="matrix(1.221048,0,0,1.4488893,-138.63084,-163.98599)">
	<path
   d="m 314,181.4 c 11.9,-19.2 11.9,-26.5 -0.3,-35.1 -4.1,-3 -9.7,-5.9 -12.7,-6.8 -6.8,-2.2 -117.3,53.8 -140.5,71.1 -20,14.9 -41.9,36.8 -41.9,42.2 0,5.7 11.6,16.8 19.5,18.6 5.4,1.4 9.7,-1.4 24.3,-15.4 9.7,-9.5 26.8,-23.5 37.6,-31.1 21.3,-14.6 58.4,-34.9 60.3,-33 0.8,0.5 -7.3,20 -17.6,43 -41.3,91.1 -70.8,174 -74.3,208.6 -2.2,21.3 3,34.9 15.1,41.3 6.8,3.5 9.2,3.8 12.4,1.1 2.2,-1.9 3.5,-4.9 2.7,-7 -1.6,-4.1 54.6,-106.7 78.6,-143.8 18.9,-28.9 52.2,-74 53.5,-72.7 0.8,0.5 -4.9,14.3 -11.9,30.8 -15.9,35.4 -40,105.7 -42.4,123.2 -2.7,19.5 0,25.7 12.4,29.5 8.6,2.7 11.6,2.4 16.8,-0.8 3.5,-2.4 19.5,-23.8 35.7,-47.8 32.4,-48.6 77.6,-111.6 78.9,-110.3 0.5,0.5 -3.2,10.8 -8.1,22.7 -21.6,51.3 -34.1,103.8 -28.6,122.2 3.8,13.2 10.3,19.2 20.8,19.2 13.2,0 18.6,-4.6 47,-39.5 l 25.4,-31.1 1.6,20.3 c 1.9,22.7 7,32.7 18.1,37 13.8,5.4 23.8,0.8 38.6,-17.3 7.6,-9.2 14.9,-17.8 16.2,-19.2 1.1,-1.4 0,4.6 -2.7,13.5 -3.2,10.5 -11.6,25.4 -25.1,44.3 -51.9,71.9 -70.3,120.8 -52.4,137.6 7.3,6.8 21.6,8.1 34.1,3.5 15.1,-5.9 33.5,-30 46.2,-60.8 9.5,-22.4 29.5,-90 36.2,-123 5.1,-23.2 7.3,-27.3 32.2,-55.7 8.1,-9.2 12.4,-16.8 11.4,-19.2 -2.4,-6.8 -5.9,-4.9 -18.9,10 -6.8,7.8 -12.4,13 -12.4,11.4 0,-1.4 2.4,-15.9 5.4,-32.2 3,-16.2 5.4,-31.1 5.4,-33 0,-5.9 -11.6,-14.6 -18.9,-13.8 -5.9,0.8 -7.8,4.1 -17.6,31.9 -5.9,17 -14.9,37.8 -20,45.9 -11.9,19.5 -43,59.5 -46.5,59.5 -6.8,0 -0.5,-39.5 14.3,-91.6 12.4,-43.2 12.2,-47 -4.3,-48.4 -9.5,-0.8 -10,-0.3 -16.5,13.5 -3.5,7.8 -9.2,24.3 -12.4,36.8 -5.7,21.3 -7.3,23.8 -30.8,51.3 -26.5,30.8 -39.2,43.5 -39.2,39.5 0,-5.1 21.6,-74.3 29.5,-93.2 4.3,-11.1 15.9,-37 25.9,-57.8 10,-20.8 20,-42.7 22.2,-48.6 3.8,-10.5 3.5,-11.1 -3.5,-17 -4.9,-4.3 -9.7,-5.9 -15.4,-5.4 -7,0.8 -10.8,4.6 -24.6,24.1 -9.2,13 -25.4,33.5 -36.2,45.9 -10.8,12.4 -34.6,42.4 -52.7,66.2 -18.1,24.1 -33.2,43.5 -33.8,43 -1.9,-1.9 20.8,-58.4 44.3,-110 43.5,-95.4 43.2,-94.9 25.1,-102.4 -8.6,-3.5 -8.9,-3.2 -16.2,5.9 -4.1,4.9 -27.6,34.6 -52.7,65.9 -49.5,61.9 -76.8,101.6 -104.9,152.2 -10,18.1 -18.6,33 -19.2,33 -0.8,0 2.4,-10.5 7,-23.8 C 241.4,322.2 283,231.1 314,181.4 Z M 525.4,509 c -9.7,35.9 -19.2,57.8 -29.2,68.6 l -5.7,6.2 -2.2,-5.9 c -4.9,-12.7 8.1,-47.3 32.2,-85.7 6.8,-10.8 12.7,-19.2 13.2,-18.6 0.6,0.5 -3.2,16.4 -8.3,35.4 z"
   id="path102" />
	<path
   id="XMLID_3_"
   d="m 935.4,145.5 c 7,3.2 8.4,3.2 10.5,0 4.1,-6.2 2.7,-12.4 -4.1,-20.5 l -6.5,-7.6 -41.6,-0.3 c -22.7,-0.3 -47.3,0 -54.9,0.5 -35.9,2.4 -77.6,7.3 -124.9,14.6 -58.9,9.2 -75.1,10 -89.2,4.1 -12.7,-5.4 -14.3,-5.1 -14.3,2.2 0,8.9 7,17.3 19.7,24.1 9.5,5.1 15.1,5.9 35.7,5.7 13.5,-0.3 34.6,-2.4 47.3,-4.3 12.7,-2.2 23.2,-3.8 23.5,-3.5 0.3,0.3 -11.9,25.7 -27,56.2 l -27.5,55.3 -21.6,4.6 c -11.9,2.4 -24.3,4.3 -27.6,4.3 -5.1,0 -6.2,1.6 -6.2,7.8 0,12.4 9.7,18.6 27.3,17 13,-1.1 13.8,-0.8 12.2,3.8 -37.6,97.6 -47,145.9 -34.1,171.3 11.4,22.2 16.5,16.8 21.1,-21.1 3.8,-33.5 17.6,-78.6 38.1,-126.7 17.8,-41.9 14.3,-38.9 53.8,-43.8 20,-2.4 24.1,-2.2 29.7,1.4 9.2,5.9 12.7,1.6 7.8,-10 -6.2,-15.1 -10.8,-17.3 -35.9,-16.8 -12.4,0.3 -22.7,0 -22.7,-0.8 0,-5.7 54.3,-103.8 60.3,-108.6 4.6,-3.8 47.6,-8.6 99.2,-10.8 35.4,-1.6 45.6,-1.1 51.9,1.9 z" />
	<path
   id="XMLID_2_"
   d="m 1157.2,338.4 c -3.2,-1.4 -7.3,1.6 -14.1,10.3 -21.3,26.5 -55.7,59.5 -68.9,65.9 -19.5,9.7 -27.8,9.2 -33,-2.7 -1.9,-5.1 -3.8,-14.1 -3.8,-20 0,-13.8 10.3,-41.9 21.3,-59.5 13.2,-20.5 39.7,-42.4 34.3,-28.4 -0.8,2.4 -2.4,10.8 -3.2,18.9 -1.9,15.9 1.9,29.5 10,33.5 9.7,5.4 12.2,3.2 12.4,-10.3 0,-7.3 3.2,-20.8 7.3,-30.8 8.4,-20.5 7,-27.6 -6.5,-37.3 -20,-14.3 -43,-8.4 -67,17.3 -16.2,17 -26.2,35.9 -33,62.4 -3.8,14.9 -10.5,28.4 -27,54.9 -12.2,19.7 -26.8,40.8 -32.7,47 -10.5,11.6 -10.5,11.6 -8.6,3.5 3.2,-15.4 17,-55.4 32.7,-96.5 25.9,-66.8 30,-85.7 19.7,-91.3 -12.4,-6.5 -17.3,-3.5 -55.4,34.3 -20.5,20.5 -41.1,42.4 -45.7,48.6 -4.6,6.5 -8.6,11.1 -9.2,10.8 -0.5,-0.5 4.6,-19.2 11.4,-41.3 l 12.4,-40.3 -7,-6.2 c -16.5,-14.3 -26.8,-4.6 -44.6,42.7 -5.9,15.7 -13,32.2 -15.7,37 -7.6,14.1 -58.1,75.1 -59.5,71.6 -1.9,-5.7 15.4,-57.3 32.7,-97.6 L 833,296 l -7.6,-6.2 c -4.1,-3.5 -8.9,-6.5 -10.8,-6.5 -16.2,0 -54.6,88.6 -57.6,132.4 -1.4,17.8 -0.8,21.1 4.6,27.6 4.3,5.7 8.1,7.6 15.1,7.6 14.3,0 18.6,-3.5 40.5,-33 l 20.3,-27 -1.6,11.6 c -0.8,6.5 -2.2,15.9 -3,20.8 -2.2,13.2 4.6,22.2 16.5,22.2 10.8,0 8.9,2.4 44.1,-53.2 25.4,-39.7 46.8,-67.8 59.2,-77.3 4.9,-3.8 4.1,-0.3 -6.5,23 C 914,411.7 904,466 920,483.6 c 6.2,7 18.9,9.2 28.6,5.4 10,-4.3 27.6,-27.6 47.3,-62.7 l 15.4,-27.3 4.1,7.8 c 9.7,19.2 24.1,28.1 45.1,28.1 24.9,0 50.5,-20 85.4,-66.8 17,-22.4 18.6,-27 11.3,-29.7 z" />
	<path
   id="XMLID_1_"
   d="m 833.2,231.1 c -7.6,18.1 -7.8,25.1 -1.1,32.2 6.8,7.3 16.2,8.9 16.2,3 0,-1.9 3,-9.2 6.8,-16.2 7.3,-13.8 6.2,-20.5 -4.1,-25.9 -8.9,-4.9 -13.7,-3.1 -17.8,6.9 z" />
</g>
</svg>
